<?xml version="1.0" encoding="utf-8"?>
<!-- Generator: Adobe Illustrator 24.0.2, SVG Export Plug-In . SVG Version: 6.00 Build 0)  -->
<svg version="1.1" id="Layer_1" xmlns="http://www.w3.org/2000/svg" xmlns:xlink="http://www.w3.org/1999/xlink" x="0px" y="0px"
	 viewBox="0 0 24 24" style="enable-background:new 0 0 24 24;" xml:space="preserve">
<style type="text/css">
	.st0{fill:#FFFFFF;}
	.st1{fill:#29ABE2;stroke:#2E3192;stroke-width:13;stroke-miterlimit:10;}
	.st2{fill:#0071BC;stroke:#2E3192;stroke-width:11;stroke-miterlimit:10;}
</style>
<ellipse class="st0" cx="71.2" cy="124.8" rx="488" ry="491.5"/>
<path class="st1" d="M528.1-45.7c20.1,53.5,31,111.5,31,172c0,270.6-219.4,490-490,490c-134.6,0-256.6-54.3-345.1-142.2
	c0,0,129.1,17.2,221.1,15.2s331.3-64,337-251c4.1-134.2-108.5-193.3-96-305c10-89.3,45.1-57.3,100-62c62.8-5.4,77-6,81,0
	s-44.4,74.3-51,103c-6,26.2,59.3,16.1,95,20C440.6-2.5,515.6-3,528.1-45.7L528.1-45.7z"/>
<path class="st2" d="M-416.8,154.3c0,0,405-56,411-35c10.3,35.9-33,93-126,93s-162,40-161,83s40,101,173,95s189-65,193-135
	s-81-182-79-298c1.9-110.1,110.9-181.4,208.3-190.1c5.3-0.5,10.5-0.8,15.7-0.9c2.5,0,5-0.1,7.5-0.1c98.9-0.7,204.6,21.6,204.6,21.6
	l0,0C340.9-307.3,214-366.7,73.2-366.7c-270.6,0-490,219.4-490,490C-416.8,137.2-416.8,154.3-416.8,154.3z"/>
</svg>
